<?xml version="1.0" encoding="iso-8859-1"?>
<!-- Generator: Adobe Illustrator 19.0.0, SVG Export Plug-In . SVG Version: 6.00 Build 0)  -->
<svg version="1.1" id="Capa_1" xmlns="http://www.w3.org/2000/svg" xmlns:xlink="http://www.w3.org/1999/xlink" x="0px" y="0px"
	 viewBox="0 0 512.002 512.002" style="enable-background:new 0 0 512.002 512.002;" xml:space="preserve">
<circle style="fill:#FF5D5D;" cx="256" cy="474" r="28"/>
<path style="fill:#62CD4D;" d="M499.23,52.39c7.366,31.358,0.111,63.977-22.471,86.559s-55.201,29.837-86.559,22.471
	c-7.366-31.358-0.111-63.977,22.471-86.559S467.872,45.024,499.23,52.39z"/>
<path style="fill:#A0E557;" d="M256.129,10c27.382,16.965,45.317,45.16,45.317,77.096s-17.935,60.131-45.317,77.096
	c-27.382-16.965-45.317-45.16-45.317-77.096S228.747,26.965,256.129,10z"/>
<path style="fill:#62CD4D;" d="M12.767,52.39c31.358-7.366,63.977-0.111,86.559,22.471s29.837,55.201,22.471,86.559
	c-31.358,7.366-63.977,0.111-86.559-22.471S5.401,83.748,12.767,52.39z"/>
<path style="fill:#FEA02C;" d="M455.376,352.508c9.136-9.136,23.948-9.136,33.084,0s9.136,23.948,0,33.084s-23.948,9.136-33.084,0
	C446.24,376.456,446.24,361.644,455.376,352.508z"/>
<path style="fill:#72D8FF;" d="M373.658,428.579c9.136-9.136,23.948-9.136,33.084,0s9.136,23.948,0,33.084
	c-9.136,9.136-23.948,9.136-33.084,0C364.522,452.527,364.522,437.715,373.658,428.579z"/>
<path style="fill:#FEA02C;" d="M56.576,385.592c-9.136,9.136-23.948,9.136-33.084,0s-9.136-23.948,0-33.084s23.948-9.136,33.084,0
	S65.712,376.456,56.576,385.592z"/>
<path style="fill:#72D8FF;" d="M138.294,461.662c-9.136,9.136-23.948,9.136-33.084,0s-9.136-23.948,0-33.084s23.948-9.136,33.084,0
	C147.43,437.715,147.43,452.527,138.294,461.662z"/>
<path d="M256.132,88.25c2.63,0,5.21-1.07,7.07-2.93c1.859-1.86,2.93-4.44,2.93-7.07s-1.07-5.21-2.93-7.07s-4.44-2.93-7.07-2.93
	c-2.64,0-5.21,1.07-7.07,2.93c-1.87,1.86-2.93,4.44-2.93,7.07s1.06,5.21,2.93,7.07C250.922,87.18,253.502,88.25,256.132,88.25z"/>
<path d="M189.002,438c-2.63,0-5.21,1.069-7.07,2.93s-2.93,4.44-2.93,7.07s1.069,5.21,2.93,7.069c1.86,1.86,4.44,2.931,7.07,2.931
	s5.21-1.07,7.069-2.931c1.86-1.859,2.931-4.439,2.931-7.069s-1.07-5.21-2.931-7.07C194.212,439.069,191.632,438,189.002,438z"/>
<path d="M329.651,411.519c-2.63,0-5.21,1.07-7.069,2.931c-1.86,1.869-2.931,4.439-2.931,7.069c0,2.641,1.07,5.21,2.931,7.08
	c1.859,1.86,4.439,2.931,7.069,2.931s5.21-1.07,7.08-2.931c1.86-1.87,2.92-4.439,2.92-7.08c0-2.62-1.06-5.2-2.92-7.069
	C334.861,412.59,332.292,411.519,329.651,411.519z"/>
<path d="M400.199,266h101.803c5.522,0,10-4.478,10-10c0-5.523-4.478-10-10-10H400.199v-72.656c4.543,0.559,9.065,0.843,13.541,0.843
	c26.697,0,51.756-9.833,70.09-28.167c24.169-24.169,33.565-60.026,25.136-95.917c-0.868-3.695-3.753-6.581-7.448-7.448
	C465.627,34.224,429.77,43.62,405.6,67.79c-23.898,23.899-33.341,59.224-25.4,94.711V246H266.13v-76.415
	c28.476-19.621,45.317-50.07,45.317-82.489c0-34.18-18.711-66.179-50.051-85.597c-3.227-1.999-7.307-1.999-10.533,0
	c-31.34,19.417-50.051,51.417-50.051,85.597c0,32.419,16.841,62.868,45.317,82.489V246H131.752v-83.294
	c8.024-35.555-1.41-70.971-25.354-94.915C82.227,43.62,46.369,34.224,10.48,42.655c-3.695,0.868-6.58,3.753-7.448,7.448
	c-8.43,35.891,0.967,71.748,25.136,95.917c18.335,18.334,43.391,28.167,70.09,28.167c4.459,0,8.967-0.282,13.495-0.837V246H10.002
	c-5.522,0-10,4.477-10,10c0,5.522,4.478,10,10,10h101.75v17.19l-56.259,56.259c-12.589-6.564-28.514-4.569-39.072,5.988
	c-13.02,13.021-13.02,34.205,0,47.226c6.511,6.51,15.062,9.765,23.613,9.765s17.103-3.255,23.613-9.765
	c10.557-10.558,12.552-26.483,5.988-39.071l42.116-42.117v101.798c-4.983,1.555-9.673,4.295-13.613,8.235
	c-13.02,13.021-13.02,34.205,0,47.226c6.511,6.51,15.062,9.765,23.613,9.765s17.103-3.255,23.613-9.765
	c13.02-13.021,13.02-34.205,0-47.226c-3.94-3.94-8.63-6.679-13.613-8.235V266h114.377v32.364l-63.192,48.206
	c-2.479,1.893-3.935,4.832-3.935,7.951V408c0,5.522,4.478,10,10,10s10-4.478,10-10v-48.529l47.127-35.95v113.79
	c-16.181,4.359-28.127,19.153-28.127,36.691c0,20.953,17.047,38,38,38s38-17.047,38-38c0-17.446-11.822-32.174-27.873-36.619
	V299.471l53.54,54.848V378.5c0,5.522,4.478,10,10,10s10-4.478,10-10v-28.252c0-2.61-1.021-5.117-2.844-6.985l-70.696-72.424V266
	h114.07v147.273c-4.982,1.555-9.672,4.295-13.611,8.234c-6.309,6.307-9.782,14.693-9.782,23.612c0,8.92,3.474,17.307,9.781,23.613
	c6.51,6.51,15.062,9.765,23.612,9.765c8.552,0,17.104-3.255,23.613-9.765c13.02-13.021,13.02-34.205,0-47.226
	c-3.939-3.94-8.63-6.679-13.613-8.235V311.475l42.117,42.117c-6.563,12.588-4.569,28.513,5.988,39.071
	c6.511,6.511,15.061,9.765,23.613,9.765c8.55,0,17.103-3.256,23.611-9.765c6.309-6.307,9.782-14.693,9.782-23.613
	c0-8.919-3.474-17.306-9.781-23.612c-10.558-10.557-26.483-12.551-39.071-5.988l-56.26-56.26V266H400.199z M419.742,81.932
	c17.868-17.869,44.036-25.529,70.997-21.051c4.478,26.955-3.183,53.127-21.052,70.997c-14.994,14.994-35.835,22.795-58.077,22.274
	l38.319-38.319c3.905-3.905,3.905-10.237,0-14.142s-10.235-3.905-14.143,0l-38.319,38.319
	C396.947,117.766,404.749,96.926,419.742,81.932z M220.812,87.096c0-25.271,13.091-49.193,35.317-65.087
	c22.227,15.894,35.317,39.816,35.317,65.087c0,21.204-9.22,41.457-25.317,56.816v-31.007c0-5.523-4.478-10-10-10s-10,4.477-10,10
	v31.007C230.032,128.553,220.812,108.301,220.812,87.096z M42.31,131.878c-17.869-17.87-25.529-44.042-21.052-70.997
	c26.96-4.479,53.129,3.181,70.997,21.051c15.004,15.004,22.806,35.862,22.273,58.121L76.164,101.69
	c-3.906-3.905-10.236-3.905-14.143,0c-3.905,3.905-3.905,10.237,0,14.142l38.32,38.319C78.116,154.663,57.293,146.861,42.31,131.878
	z M49.505,378.52c-5.223,5.223-13.719,5.223-18.941,0c-5.223-5.222-5.223-13.719,0-18.94c2.611-2.611,6.041-3.917,9.471-3.917
	s6.859,1.306,9.471,3.917C54.728,364.802,54.728,373.299,49.505,378.52z M131.223,454.591c-5.223,5.223-13.719,5.223-18.941,0
	c-5.223-5.222-5.223-13.719,0-18.94c2.611-2.611,6.041-3.917,9.471-3.917s6.859,1.306,9.471,3.917
	C136.445,440.872,136.445,449.369,131.223,454.591z M274.002,474.002c0,9.925-8.075,18-18,18c-9.925,0-18-8.075-18-18
	s8.075-18,18-18C265.927,456.002,274.002,464.077,274.002,474.002z M471.917,355.663c3.43,0,6.86,1.306,9.472,3.917
	c2.529,2.53,3.923,5.893,3.923,9.47c0,3.578-1.394,6.94-3.924,9.471c-5.221,5.224-13.72,5.223-18.94,0
	c-5.223-5.222-5.223-13.719,0-18.94C465.058,356.969,468.487,355.663,471.917,355.663z M399.67,454.591
	c-5.221,5.223-13.719,5.223-18.941,0c-2.529-2.53-3.923-5.893-3.923-9.471c0-3.577,1.394-6.939,3.923-9.47h0.001
	c2.61-2.611,6.04-3.917,9.47-3.917c3.431,0,6.86,1.306,9.471,3.917C404.893,440.872,404.893,449.369,399.67,454.591z"/>
<g>
</g>
<g>
</g>
<g>
</g>
<g>
</g>
<g>
</g>
<g>
</g>
<g>
</g>
<g>
</g>
<g>
</g>
<g>
</g>
<g>
</g>
<g>
</g>
<g>
</g>
<g>
</g>
<g>
</g>
</svg>
